<?xml version="1.0" standalone="no"?>
<svg xmlns:xlink="http://www.w3.org/1999/xlink" id="wave" style="transform:rotate(0deg); transition: 0.3s" viewBox="0 0 1440 140" version="1.1" xmlns="http://www.w3.org/2000/svg"><defs><linearGradient id="sw-gradient-0" x1="0" x2="0" y1="1" y2="0"><stop stop-color="rgba(253, 207, 217, 1)" offset="0%"/><stop stop-color="rgba(253, 207, 217, 1)" offset="100%"/></linearGradient></defs><path style="transform:translate(0, 0px); opacity:1" fill="url(#sw-gradient-0)" d="M0,42L30,53.7C60,65,120,89,180,93.3C240,98,300,84,360,65.3C420,47,480,23,540,16.3C600,9,660,19,720,35C780,51,840,75,900,79.3C960,84,1020,70,1080,63C1140,56,1200,56,1260,60.7C1320,65,1380,75,1440,77C1500,79,1560,75,1620,77C1680,79,1740,89,1800,91C1860,93,1920,89,1980,84C2040,79,2100,75,2160,72.3C2220,70,2280,70,2340,65.3C2400,61,2460,51,2520,49C2580,47,2640,51,2700,51.3C2760,51,2820,47,2880,53.7C2940,61,3000,79,3060,72.3C3120,65,3180,33,3240,21C3300,9,3360,19,3420,35C3480,51,3540,75,3600,88.7C3660,103,3720,107,3780,102.7C3840,98,3900,84,3960,72.3C4020,61,4080,51,4140,39.7C4200,28,4260,14,4290,7L4320,0L4320,140L4290,140C4260,140,4200,140,4140,140C4080,140,4020,140,3960,140C3900,140,3840,140,3780,140C3720,140,3660,140,3600,140C3540,140,3480,140,3420,140C3360,140,3300,140,3240,140C3180,140,3120,140,3060,140C3000,140,2940,140,2880,140C2820,140,2760,140,2700,140C2640,140,2580,140,2520,140C2460,140,2400,140,2340,140C2280,140,2220,140,2160,140C2100,140,2040,140,1980,140C1920,140,1860,140,1800,140C1740,140,1680,140,1620,140C1560,140,1500,140,1440,140C1380,140,1320,140,1260,140C1200,140,1140,140,1080,140C1020,140,960,140,900,140C840,140,780,140,720,140C660,140,600,140,540,140C480,140,420,140,360,140C300,140,240,140,180,140C120,140,60,140,30,140L0,140Z"/></svg>