<svg width="1440" height="305" viewBox="0 0 1440 305" fill="none" xmlns="http://www.w3.org/2000/svg">
<g filter="url(#filter0_ddddii_2_25)">
<path fill-rule="evenodd" clip-rule="evenodd" d="M0 15L43.6389 66C87.2778 116 174.556 217 261.833 224C349.111 231 436.389 145 523.667 145C610.944 145 698.222 231 785.5 231C872.778 231 960.056 145 1047.33 116C1134.61 87 1221.89 116 1309.17 174C1396.44 231 1483.72 318 1527.36 361L1571 404H1527.36C1483.72 404 1396.44 404 1309.17 404C1221.89 404 1134.61 404 1047.33 404C960.056 404 872.778 404 785.5 404C698.222 404 610.944 404 523.667 404C436.389 404 349.111 404 261.833 404C174.556 404 87.2778 404 43.6389 404H0V15Z" fill="#FDCFD9"/>
<path fill-rule="evenodd" clip-rule="evenodd" d="M0 15L43.6389 66C87.2778 116 174.556 217 261.833 224C349.111 231 436.389 145 523.667 145C610.944 145 698.222 231 785.5 231C872.778 231 960.056 145 1047.33 116C1134.61 87 1221.89 116 1309.17 174C1396.44 231 1483.72 318 1527.36 361L1571 404H1527.36C1483.72 404 1396.44 404 1309.17 404C1221.89 404 1134.61 404 1047.33 404C960.056 404 872.778 404 785.5 404C698.222 404 610.944 404 523.667 404C436.389 404 349.111 404 261.833 404C174.556 404 87.2778 404 43.6389 404H0V15Z" stroke="black"/>
</g>
<defs>
<filter id="filter0_ddddii_2_25" x="-15" y="0" width="1604" height="422" filterUnits="userSpaceOnUse" color-interpolation-filters="sRGB">
<feFlood flood-opacity="0" result="BackgroundImageFix"/>
<feColorMatrix in="SourceAlpha" type="matrix" values="0 0 0 0 0 0 0 0 0 0 0 0 0 0 0 0 0 0 127 0" result="hardAlpha"/>
<feOffset dx="5" dy="5"/>
<feGaussianBlur stdDeviation="6.5"/>
<feColorMatrix type="matrix" values="0 0 0 0 0.882353 0 0 0 0 0.792157 0 0 0 0 0.811765 0 0 0 0.9 0"/>
<feBlend mode="normal" in2="BackgroundImageFix" result="effect1_dropShadow_2_25"/>
<feColorMatrix in="SourceAlpha" type="matrix" values="0 0 0 0 0 0 0 0 0 0 0 0 0 0 0 0 0 0 127 0" result="hardAlpha"/>
<feOffset dx="-5" dy="-5"/>
<feGaussianBlur stdDeviation="5"/>
<feColorMatrix type="matrix" values="0 0 0 0 1 0 0 0 0 0.964706 0 0 0 0 0.992157 0 0 0 0.9 0"/>
<feBlend mode="normal" in2="effect1_dropShadow_2_25" result="effect2_dropShadow_2_25"/>
<feColorMatrix in="SourceAlpha" type="matrix" values="0 0 0 0 0 0 0 0 0 0 0 0 0 0 0 0 0 0 127 0" result="hardAlpha"/>
<feOffset dx="5" dy="-5"/>
<feGaussianBlur stdDeviation="5"/>
<feColorMatrix type="matrix" values="0 0 0 0 0.882353 0 0 0 0 0.792157 0 0 0 0 0.811765 0 0 0 0.2 0"/>
<feBlend mode="normal" in2="effect2_dropShadow_2_25" result="effect3_dropShadow_2_25"/>
<feColorMatrix in="SourceAlpha" type="matrix" values="0 0 0 0 0 0 0 0 0 0 0 0 0 0 0 0 0 0 127 0" result="hardAlpha"/>
<feOffset dx="-5" dy="5"/>
<feGaussianBlur stdDeviation="5"/>
<feColorMatrix type="matrix" values="0 0 0 0 0.882353 0 0 0 0 0.792157 0 0 0 0 0.811765 0 0 0 0.2 0"/>
<feBlend mode="normal" in2="effect3_dropShadow_2_25" result="effect4_dropShadow_2_25"/>
<feBlend mode="normal" in="SourceGraphic" in2="effect4_dropShadow_2_25" result="shape"/>
<feColorMatrix in="SourceAlpha" type="matrix" values="0 0 0 0 0 0 0 0 0 0 0 0 0 0 0 0 0 0 127 0" result="hardAlpha"/>
<feOffset dx="-1" dy="-1"/>
<feGaussianBlur stdDeviation="1"/>
<feComposite in2="hardAlpha" operator="arithmetic" k2="-1" k3="1"/>
<feColorMatrix type="matrix" values="0 0 0 0 0.882353 0 0 0 0 0.792157 0 0 0 0 0.811765 0 0 0 0.5 0"/>
<feBlend mode="normal" in2="shape" result="effect5_innerShadow_2_25"/>
<feColorMatrix in="SourceAlpha" type="matrix" values="0 0 0 0 0 0 0 0 0 0 0 0 0 0 0 0 0 0 127 0" result="hardAlpha"/>
<feOffset dx="1" dy="1"/>
<feGaussianBlur stdDeviation="1"/>
<feComposite in2="hardAlpha" operator="arithmetic" k2="-1" k3="1"/>
<feColorMatrix type="matrix" values="0 0 0 0 1 0 0 0 0 0.964706 0 0 0 0 0.992157 0 0 0 0.3 0"/>
<feBlend mode="normal" in2="effect5_innerShadow_2_25" result="effect6_innerShadow_2_25"/>
</filter>
</defs>
</svg>
