<svg width="1436" height="408" viewBox="0 0 1436 408" fill="none" xmlns="http://www.w3.org/2000/svg">
<path fill-rule="evenodd" clip-rule="evenodd" d="M0 0L43.8333 54.4087C87.6667 107.751 175.333 215.501 263 222.969C350.667 230.437 438.333 138.689 526 138.689C613.667 138.689 701.333 230.437 789 230.437C876.667 230.437 964.333 138.689 1052 107.751C1139.67 76.8123 1227.33 107.751 1315 169.627C1402.67 230.437 1490.33 323.252 1534.17 369.126L1578 415H1534.17C1490.33 415 1402.67 415 1315 415C1227.33 415 1139.67 415 1052 415C964.333 415 876.667 415 789 415C701.333 415 613.667 415 526 415C438.333 415 350.667 415 263 415C175.333 415 87.6667 415 43.8333 415H0V0Z" fill="#FDCFD9"/>
</svg>
